<svg width="22" height="16" viewBox="0 0 22 16" fill="none" xmlns="http://www.w3.org/2000/svg">
<path fill-rule="evenodd" clip-rule="evenodd" d="M16.2405 15.8313C16.2405 15.8313 15.5629 15.022 14.9983 14.3068C17.4639 13.6103 18.405 12.0669 18.405 12.0669C17.6333 12.5751 16.8993 12.9328 16.2405 13.1774C15.2994 13.5727 14.396 13.8362 13.5113 13.9868C11.7044 14.3256 10.0481 14.2315 8.63644 13.968C7.56359 13.7609 6.64131 13.4598 5.86961 13.1586C5.43671 12.9892 4.96616 12.7822 4.49561 12.5187C4.46738 12.4999 4.43915 12.4857 4.41091 12.4716C4.38268 12.4575 4.35445 12.4434 4.32622 12.4246C4.28857 12.4057 4.26975 12.3869 4.25093 12.3681C3.91213 12.1799 3.72391 12.0481 3.72391 12.0481C3.72391 12.0481 4.62737 13.5539 7.01775 14.2691C6.45309 14.9843 5.75668 15.8313 5.75668 15.8313C1.59703 15.6996 0.0159912 12.9704 0.0159912 12.9704C0.0159912 6.90974 2.72635 1.99721 2.72635 1.99721C5.43671 -0.035557 8.01531 0.0209084 8.01531 0.0209084L8.20353 0.246772C4.81559 1.22551 3.25337 2.71245 3.25337 2.71245C3.25337 2.71245 3.66745 2.48658 4.36386 2.16661C6.37781 1.28198 7.97767 1.03729 8.63644 0.980827C8.65078 0.978437 8.66482 0.976046 8.67863 0.973695C8.77358 0.957528 8.85782 0.943184 8.95641 0.943184C10.1045 0.792608 11.4033 0.754965 12.7584 0.90554C14.5465 1.11258 16.4664 1.6396 18.4238 2.71245C18.4238 2.71245 16.9369 1.3008 13.7372 0.322059L14.0007 0.0209084C14.0007 0.0209084 16.5793 -0.035557 19.2897 1.99721C19.2897 1.99721 22 6.90974 22 12.9704C22 12.9704 20.4001 15.6996 16.2405 15.8313ZM5.50574 9.16809C5.50574 8.01995 6.35273 7.07886 7.42558 7.07886C8.49843 7.07886 9.36424 8.01995 9.34541 9.16809C9.34541 10.3162 8.49843 11.2573 7.42558 11.2573C6.37155 11.2573 5.50574 10.3162 5.50574 9.16809ZM12.3757 9.16809C12.3757 8.01995 13.2227 7.07886 14.2956 7.07886C15.3684 7.07886 16.2154 8.01995 16.2154 9.16809C16.2154 10.3162 15.3684 11.2573 14.2956 11.2573C13.2416 11.2573 12.3757 10.3162 12.3757 9.16809Z" fill="#EE7D85"/>
</svg>
