<svg width="36" height="36" viewBox="0 0 36 36" fill="none" xmlns="http://www.w3.org/2000/svg">
<path fill-rule="evenodd" clip-rule="evenodd" d="M18 36C27.9411 36 36 27.9411 36 18C36 8.05887 27.9411 0 18 0C8.05887 0 0 8.05887 0 18C0 27.9411 8.05887 36 18 36ZM18.4551 5.30805C18 5.68305 18 6.2887 18 7.5V16.5566C18 17.261 18 17.6132 17.8325 17.9033C17.6651 18.1934 17.36 18.3695 16.75 18.7217L8.90673 23.25C7.85772 23.8556 7.33321 24.1585 7.23598 24.7401C7.13875 25.3217 7.48968 25.7251 8.19154 26.5319C9.13214 27.6133 10.2489 28.536 11.5 29.2583C13.4762 30.3993 15.718 31 18 31C20.282 31 22.5237 30.3993 24.5 29.2583C26.4762 28.1173 28.1173 26.4762 29.2583 24.5C30.3993 22.5238 31 20.282 31 18C31 15.718 30.3993 13.4763 29.2583 11.5C28.1173 9.52375 26.4762 7.88266 24.5 6.74167C23.2489 6.01935 21.8914 5.51357 20.4847 5.23965C19.435 5.03525 18.9101 4.93306 18.4551 5.30805Z" fill="#1F1F21"/>
</svg>
