<svg width="224" height="46" viewBox="0 0 224 46" fill="none" xmlns="http://www.w3.org/2000/svg">
<g clip-path="url(#clip0_1545_2689)">
<path d="M112.89 13.5377C112.877 13.6204 112.884 13.705 112.909 13.7846C112.935 13.8643 112.979 13.9368 113.037 13.9964C113.096 14.056 113.167 14.101 113.246 14.1278C113.325 14.1547 113.409 14.1626 113.492 14.151H120.525C121.22 14.151 121.559 14.4917 121.559 15.1135C121.559 15.7353 121.22 16.0505 120.525 16.0505H113.127C111.263 16.0505 110.644 15.4372 110.644 13.7592V1.54455C110.644 0.871641 111.025 0.505371 111.763 0.505371C112.5 0.505371 112.89 0.871641 112.89 1.54455V13.5377Z" fill="white"/>
<path d="M130.542 6.32301C130.085 5.14754 129.695 3.92949 129.39 2.86475C129.068 3.90394 128.695 5.10496 128.22 6.32301L124.636 15.599C124.569 15.7917 124.442 15.9578 124.274 16.0728C124.106 16.1877 123.906 16.2456 123.703 16.2378C123.425 16.269 123.145 16.1878 122.926 16.0122C122.707 15.8366 122.566 15.5808 122.534 15.3009C122.536 15.1212 122.577 14.944 122.653 14.7813L128.034 1.61262C128.339 0.89712 128.729 0.53086 129.39 0.53086C129.714 0.525202 130.031 0.628542 130.291 0.824494C130.55 1.02045 130.737 1.29779 130.822 1.61262L136.085 14.7472C136.156 14.8837 136.191 15.0362 136.186 15.1901C136.178 15.3373 136.14 15.4813 136.075 15.6132C136.009 15.7452 135.918 15.8626 135.807 15.9581C135.695 16.0537 135.565 16.1255 135.425 16.1691C135.285 16.2128 135.137 16.2275 134.992 16.2123C134.782 16.2267 134.574 16.1721 134.398 16.0569C134.222 15.9416 134.088 15.7719 134.017 15.5735L130.542 6.32301Z" fill="white"/>
<path d="M172.737 6.32286C172.28 5.14739 171.89 3.92933 171.585 2.8646C171.263 3.90378 170.881 5.1048 170.407 6.32286L166.856 15.5988C166.789 15.7916 166.662 15.9576 166.495 16.0726C166.327 16.1876 166.127 16.2455 165.924 16.2377C165.347 16.2377 164.746 15.897 164.746 15.3007C164.752 15.1215 164.792 14.9452 164.864 14.7811L170.254 1.61247C170.551 0.896966 170.949 0.530706 171.61 0.530706C171.934 0.525475 172.249 0.62914 172.507 0.825172C172.765 1.0212 172.951 1.29833 173.034 1.61247L178.305 14.7471C178.372 14.885 178.407 15.0365 178.407 15.19C178.398 15.3372 178.36 15.4811 178.295 15.6131C178.23 15.7451 178.139 15.8624 178.027 15.958C177.915 16.0535 177.785 16.1253 177.645 16.169C177.505 16.2127 177.358 16.2274 177.212 16.2121C177.002 16.228 176.793 16.174 176.617 16.0585C176.441 15.9431 176.307 15.7726 176.237 15.5733L172.737 6.32286Z" fill="white"/>
<path d="M145.153 0.632935C148.653 0.632935 150.237 2.44726 150.237 5.12188C150.237 7.79649 148.627 9.63635 145.153 9.63635H140.797V15.173C140.797 15.8544 140.441 16.1951 139.703 16.1951C138.966 16.1951 138.636 15.8544 138.636 15.173V2.92425C138.636 1.22067 139.254 0.632935 141.136 0.632935H145.153ZM141.381 2.46428C141.299 2.45186 141.214 2.45879 141.135 2.48452C141.055 2.51026 140.983 2.55412 140.923 2.61265C140.863 2.67119 140.817 2.74282 140.79 2.82199C140.762 2.90115 140.753 2.98572 140.763 3.06906V7.80501H145.136C147.246 7.80501 148 6.51881 148 5.12188C148 3.72494 147.407 2.46428 145.178 2.46428H141.381Z" fill="white"/>
<path d="M155.11 13.5377C155.11 13.9551 155.305 14.151 155.703 14.151H162.746C163.441 14.151 163.771 14.4917 163.771 15.1135C163.771 15.7353 163.441 16.0505 162.746 16.0505H155.347C153.483 16.0505 152.864 15.4372 152.864 13.7592V1.54455C152.864 0.871641 153.237 0.505371 153.975 0.505371C154.712 0.505371 155.11 0.871641 155.11 1.54455V13.5377Z" fill="white"/>
<path d="M192.229 4.04865C192.303 4.22401 192.343 4.41187 192.347 4.6023C192.309 4.85655 192.186 5.09029 191.999 5.26563C191.812 5.44097 191.571 5.54764 191.316 5.56834C191.061 5.58904 190.807 5.52257 190.594 5.3797C190.381 5.23682 190.223 5.02592 190.144 4.78117C189.904 4.01484 189.415 3.35129 188.756 2.896C188.098 2.4407 187.306 2.21981 186.508 2.26841C183.72 2.26841 182.017 4.52564 182.017 8.29906C182.017 12.0725 183.78 14.432 186.483 14.432C188.373 14.432 189.627 13.4354 190.305 11.4166C190.344 11.1767 190.467 10.9587 190.652 10.8024C190.837 10.646 191.072 10.5617 191.314 10.5648C191.991 10.5648 192.525 10.9652 192.525 11.5188C192.528 11.702 192.496 11.8839 192.432 12.0555C192.083 13.3438 191.302 14.4715 190.221 15.2476C189.14 16.0237 187.826 16.4005 186.5 16.3144C181.992 16.3144 179.822 12.8135 179.822 8.29906C179.822 4.10826 181.814 0.385966 186.525 0.385966C187.739 0.313813 188.944 0.629209 189.968 1.28707C190.993 1.94492 191.784 2.91153 192.229 4.04865Z" fill="white"/>
<path d="M195.076 2.92425C195.076 1.22067 195.695 0.632935 197.568 0.632935H204.881C205.534 0.632935 205.873 0.948112 205.873 1.52733C205.893 1.66134 205.88 1.79814 205.837 1.9264C205.793 2.05465 205.72 2.17065 205.623 2.26477C205.526 2.35888 205.408 2.42841 205.279 2.46755C205.15 2.50669 205.014 2.51432 204.881 2.48983H197.881C197.801 2.47849 197.719 2.48612 197.642 2.51208C197.565 2.53803 197.494 2.58163 197.437 2.63943C197.379 2.69723 197.336 2.76764 197.31 2.84515C197.284 2.92266 197.277 3.00514 197.288 3.08609V6.97877H203.008C203.703 6.97877 204.042 7.30244 204.042 7.89869C204.042 8.49494 203.703 8.81864 203.008 8.81864H197.314V13.5546C197.314 13.972 197.508 14.1764 197.907 14.1764H205.186C205.881 14.1764 206.22 14.5171 206.22 15.1304C206.22 15.7437 205.881 16.0503 205.186 16.0503H197.559C195.686 16.0503 195.068 15.437 195.068 13.759L195.076 2.92425Z" fill="white"/>
<path d="M117.203 29.7131C120.703 29.7131 122.288 31.5274 122.288 34.2021C122.288 36.8767 120.678 38.7165 117.203 38.7165H112.856V44.2532C112.856 44.9346 112.5 45.2753 111.763 45.2753C111.025 45.2753 110.686 44.9346 110.686 44.2532V32.0044C110.686 30.3009 111.305 29.7131 113.229 29.7131H117.203ZM113.415 31.5445C112.992 31.5445 112.797 31.7489 112.797 32.1492V36.8937H117.169C119.271 36.8937 120.034 35.616 120.034 34.2106C120.034 32.8051 119.432 31.553 117.212 31.553L113.415 31.5445Z" fill="white"/>
<path d="M144.975 45.4116C140.178 45.4116 138.195 41.553 138.195 37.3963C138.195 33.2395 140.22 29.4832 144.975 29.4832C149.729 29.4832 151.695 33.1629 151.695 37.3963C151.695 41.6297 149.856 45.4116 144.975 45.4116ZM144.975 43.5292C147.873 43.5292 149.5 41.2378 149.5 37.3963C149.5 33.5547 147.898 31.3656 144.992 31.3656C142.085 31.3656 140.424 33.5803 140.424 37.3963C140.424 41.2123 142.11 43.5121 144.975 43.5121V43.5292Z" fill="white"/>
<path d="M160.178 44.2532C160.178 44.9346 159.797 45.2753 159.025 45.2753C158.254 45.2753 157.932 44.9346 157.932 44.2532V31.6041H153.814C153.144 31.6041 152.805 31.2889 152.805 30.6501C152.805 30.0113 153.144 29.7131 153.814 29.7131H164.356C165.025 29.7131 165.364 30.0453 165.364 30.6501C165.364 31.2549 165.025 31.6041 164.356 31.6041H160.178V44.2532Z" fill="white"/>
<path d="M173.22 45.4116C168.424 45.4116 166.441 41.553 166.441 37.3963C166.441 33.2395 168.466 29.4832 173.22 29.4832C177.975 29.4832 179.941 33.1629 179.941 37.3963C179.941 41.6297 178.11 45.4116 173.22 45.4116ZM173.22 43.5292C176.119 43.5292 177.746 41.2378 177.746 37.3963C177.746 33.5547 176.136 31.3656 173.237 31.3656C170.339 31.3656 168.661 33.5803 168.661 37.3963C168.661 41.2123 170.356 43.5121 173.22 43.5121V43.5292Z" fill="white"/>
<path d="M194.568 33.1286C194.637 33.3055 194.677 33.4925 194.686 33.6823C194.652 33.9404 194.53 34.1788 194.342 34.3579C194.154 34.537 193.91 34.6461 193.652 34.667C193.394 34.6879 193.136 34.6194 192.922 34.4728C192.708 34.3262 192.55 34.1104 192.475 33.8612C192.237 33.0932 191.749 32.4279 191.09 31.9722C190.43 31.5165 189.638 31.2968 188.839 31.3484C186.059 31.3484 184.347 33.6056 184.347 37.3791C184.347 41.1525 186.119 43.5119 188.822 43.5119C190.712 43.5119 191.958 42.5154 192.636 40.4966C192.676 40.256 192.801 40.0379 192.987 39.8816C193.174 39.7254 193.41 39.6414 193.653 39.6448C193.795 39.627 193.939 39.6375 194.076 39.6759C194.214 39.7142 194.343 39.7797 194.456 39.8683C194.569 39.957 194.663 40.0672 194.733 40.1926C194.803 40.3179 194.848 40.456 194.864 40.5988C194.862 40.7851 194.828 40.9696 194.763 41.144C194.414 42.4323 193.633 43.56 192.552 44.3361C191.471 45.1122 190.156 45.489 188.83 45.4029C184.314 45.4029 182.153 41.902 182.153 37.3876C182.153 33.1968 184.136 29.4745 188.847 29.4745C190.062 29.4006 191.269 29.7141 192.296 30.3703C193.324 31.0264 194.119 31.9917 194.568 33.1286Z" fill="white"/>
<path d="M203.466 45.4116C198.678 45.4116 196.686 41.553 196.686 37.3963C196.686 33.2395 198.712 29.4832 203.466 29.4832C208.22 29.4832 210.178 33.1629 210.178 37.3963C210.178 41.6297 208.331 45.4116 203.466 45.4116ZM203.466 43.5292C206.373 43.5292 208 41.2378 208 37.3963C208 33.5547 206.39 31.3656 203.492 31.3656C200.593 31.3656 198.915 33.5803 198.915 37.3963C198.915 41.2123 200.602 43.5121 203.466 43.5121V43.5292Z" fill="white"/>
<path d="M215.331 42.6176C215.318 42.7006 215.325 42.7854 215.351 42.8653C215.376 42.9452 215.42 43.0181 215.478 43.0783C215.536 43.1385 215.608 43.1843 215.686 43.2123C215.765 43.2402 215.849 43.2495 215.932 43.2394H222.966C223.661 43.2394 224 43.5716 224 44.1934C224 44.8152 223.661 45.1304 222.966 45.1304H215.568C213.703 45.1304 213.085 44.5171 213.085 42.8391V30.6329C213.085 29.9515 213.466 29.5938 214.203 29.5938C214.941 29.5938 215.331 29.9515 215.331 30.6329V42.6176Z" fill="white"/>
<path d="M136.686 43.7081L133.246 37.9926C134.103 37.7494 134.852 37.219 135.368 36.4893C135.885 35.7596 136.138 34.8745 136.085 33.9806C136.085 31.1271 134.39 29.7217 131.059 29.7217H127.424C125.534 29.7217 124.881 30.3179 124.881 32.013V44.2617C124.881 44.9431 125.203 45.2839 125.932 45.2839C126.661 45.2839 127.008 44.9431 127.008 44.2617V32.1493C127.008 31.7489 127.229 31.5445 127.644 31.5445H131.034C132.907 31.5445 133.839 32.3963 133.839 34.0062C133.839 35.6161 132.881 36.5615 131 36.5615H130.949C130.788 36.5615 130.22 36.6127 130.525 37.3367L131.093 38.3759L134.712 44.7728C134.796 44.9261 134.918 45.0546 135.067 45.1457C135.216 45.2369 135.385 45.2874 135.559 45.2924C135.705 45.3052 135.851 45.2888 135.99 45.2442C136.129 45.1996 136.258 45.1277 136.37 45.0326C136.481 44.9375 136.572 44.8211 136.638 44.6902C136.704 44.5593 136.744 44.4166 136.754 44.2702C136.784 44.0802 136.761 43.8854 136.686 43.7081Z" fill="white"/>
<g clip-path="url(#clip1_1545_2689)">
<path d="M62.268 3.77261C62.0406 3.37647 61.7131 3.04743 61.3184 2.81863C60.9238 2.58983 60.476 2.46936 60.0202 2.46936C59.5643 2.46936 59.1166 2.58983 58.7219 2.81863C58.3273 3.04743 57.9998 3.37647 57.7724 3.77261L42.4784 28.8799L33.0374 45.2038H47.4272C47.8827 45.2041 48.3303 45.0841 48.7249 44.8558C49.1195 44.6276 49.4472 44.2991 49.675 43.9035L59.1618 28.0794C59.5503 27.4313 60.4895 27.4317 60.8775 28.08L70.3481 43.9035C70.5758 44.2991 70.9036 44.6276 71.2982 44.8558C71.6928 45.0841 72.1404 45.2041 72.5959 45.2038H84.7032C84.9309 45.204 85.1547 45.144 85.3519 45.0299C85.5492 44.9159 85.713 44.7517 85.8269 44.554C85.9408 44.3563 86.0008 44.132 86.0009 43.9037C86.0009 43.6754 85.9409 43.451 85.8271 43.2533L62.268 3.77261Z" fill="url(#paint0_radial_1545_2689)"/>
<path opacity="0.9" d="M41.3774 3.9846C41.775 3.31804 41.2947 2.47229 40.5186 2.47229H26.4608C26.0052 2.472 25.5576 2.59204 25.163 2.82032C24.7684 3.0486 24.4407 3.37705 24.2129 3.77266L0.653868 43.2187C0.540012 43.4164 0.480066 43.6407 0.480103 43.8691C0.480139 44.0974 0.54016 44.3217 0.654079 44.5194C0.767998 44.7171 0.931839 44.8812 1.1291 44.9953C1.32636 45.1094 1.55006 45.1694 1.77778 45.1692H33.0461L41.0061 31.8245H26.5307C25.7546 31.8245 25.2743 30.9788 25.6719 30.3122L41.3774 3.9846Z" fill="url(#paint1_linear_1545_2689)"/>
</g>
</g>
<defs>
<radialGradient id="paint0_radial_1545_2689" cx="0" cy="0" r="1" gradientUnits="userSpaceOnUse" gradientTransform="translate(89.5466 40.7522) rotate(-147.588) scale(54.936 48.3086)">
<stop stop-color="#FF8979"/>
<stop offset="0.444092" stop-color="#862ECB"/>
<stop offset="0.736917" stop-color="#5234CB"/>
<stop offset="1" stop-color="#4B57CB"/>
</radialGradient>
<linearGradient id="paint1_linear_1545_2689" x1="13.3516" y1="18.5897" x2="43.1882" y2="26.6949" gradientUnits="userSpaceOnUse">
<stop offset="0.465827" stop-color="white"/>
<stop offset="1" stop-color="white" stop-opacity="0.5"/>
</linearGradient>
<clipPath id="clip0_1545_2689">
<rect width="224" height="45" fill="white" transform="translate(0 0.385986)"/>
</clipPath>
<clipPath id="clip1_1545_2689">
<rect width="87" height="44.1692" fill="white" transform="translate(-1 1)"/>
</clipPath>
</defs>
</svg>
