<svg width="290" height="25" viewBox="0 0 290 25" fill="none" xmlns="http://www.w3.org/2000/svg">
<g clip-path="url(#clip0_1545_2578)">
<path d="M36.3609 1.56931C36.2302 1.34509 36.042 1.15886 35.8152 1.02936C35.5884 0.899854 35.3311 0.831665 35.0691 0.831665C34.8071 0.831665 34.5497 0.899854 34.3229 1.02936C34.0962 1.15886 33.9079 1.34509 33.7772 1.56931L24.9876 15.7801L19.5618 25.0196H27.8317C28.0935 25.0198 28.3507 24.9518 28.5775 24.8226C28.8043 24.6934 28.9927 24.5075 29.1236 24.2836L34.2142 15.921C34.604 15.2807 35.5336 15.2811 35.9229 15.9217L41.0046 24.2836C41.1355 24.5075 41.3239 24.6934 41.5507 24.8226C41.7775 24.9518 42.0347 25.0198 42.2965 25.0196H49.2547C49.3856 25.0197 49.5142 24.9857 49.6275 24.9212C49.7409 24.8566 49.835 24.7637 49.9005 24.6518C49.966 24.5399 50.0005 24.4129 50.0005 24.2837C50.0005 24.1545 49.9661 24.0275 49.9006 23.9156L36.3609 1.56931Z" fill="url(#paint0_radial_1545_2578)"/>
<path opacity="0.9" d="M23.9538 2.35146C24.3574 1.68502 23.8776 0.833374 23.0984 0.833374H15.782C15.5202 0.833209 15.263 0.901155 15.0362 1.03036C14.8094 1.15957 14.6211 1.34547 14.4902 1.56939L0.950497 23.896C0.885063 24.0079 0.850611 24.1349 0.850632 24.2642C0.850653 24.3934 0.885148 24.5203 0.950618 24.6322C1.01609 24.7441 1.11025 24.837 1.22362 24.9016C1.33698 24.9662 1.46555 25.0001 1.59642 25H19.5667L24.1414 17.4469H16.5851C15.8059 17.4469 15.3261 16.5952 15.7297 15.9288L23.9538 2.35146Z" fill="url(#paint1_linear_1545_2578)"/>
</g>
<g clip-path="url(#clip1_1545_2578)">
<path d="M64.309 18.8866C64.296 18.9712 64.3029 19.0577 64.3292 19.1392C64.3556 19.2206 64.4006 19.2948 64.4607 19.3557C64.5208 19.4167 64.5943 19.4627 64.6754 19.4902C64.7565 19.5177 64.8429 19.5258 64.9277 19.5139H72.1598C72.8743 19.5139 73.2228 19.8625 73.2228 20.4985C73.2228 21.1346 72.8743 21.457 72.1598 21.457H64.553C62.6361 21.457 62 20.8296 62 19.1131V6.6182C62 5.92985 62.3921 5.55518 63.1502 5.55518C63.9082 5.55518 64.309 5.92985 64.309 6.6182V18.8866Z" fill="white"/>
<path d="M82.4589 11.5065C81.9884 10.304 81.5876 9.05801 81.2739 7.96885C80.9428 9.03187 80.5594 10.2605 80.0714 11.5065L76.3857 20.9953C76.3169 21.1924 76.1866 21.3623 76.0141 21.4799C75.8416 21.5975 75.6359 21.6567 75.4273 21.6488C75.1408 21.6806 74.8534 21.5976 74.628 21.418C74.4026 21.2383 74.2576 20.9767 74.2248 20.6903C74.2271 20.5065 74.2687 20.3253 74.3468 20.1588L79.8798 6.68799C80.1934 5.95607 80.5942 5.5814 81.2739 5.5814C81.6075 5.57561 81.9335 5.68133 82.2002 5.88177C82.467 6.08222 82.6592 6.36593 82.7464 6.68799L88.1574 20.124C88.2303 20.2636 88.2663 20.4196 88.262 20.577C88.2534 20.7276 88.2143 20.8748 88.1472 21.0099C88.08 21.1449 87.9862 21.2649 87.8714 21.3626C87.7565 21.4604 87.6231 21.5338 87.479 21.5785C87.335 21.6232 87.1834 21.6382 87.0334 21.6227C86.8181 21.6374 86.6038 21.5816 86.423 21.4637C86.2422 21.3458 86.1047 21.1722 86.0314 20.9692L82.4589 11.5065Z" fill="white"/>
<path d="M125.843 11.5064C125.372 10.304 124.971 9.05798 124.658 7.96881C124.326 9.03184 123.934 10.2604 123.446 11.5064L119.796 20.9953C119.727 21.1924 119.596 21.3622 119.424 21.4799C119.251 21.5975 119.046 21.6567 118.837 21.6488C118.245 21.6488 117.626 21.3002 117.626 20.6903C117.633 20.507 117.674 20.3266 117.748 20.1588L123.29 6.68795C123.595 5.95603 124.004 5.58137 124.684 5.58137C125.016 5.57602 125.341 5.68206 125.606 5.88259C125.871 6.08312 126.062 6.3666 126.148 6.68795L131.567 20.1239C131.636 20.265 131.672 20.42 131.672 20.577C131.663 20.7276 131.624 20.8748 131.557 21.0098C131.49 21.1449 131.396 21.2649 131.281 21.3626C131.166 21.4603 131.033 21.5338 130.889 21.5785C130.745 21.6232 130.593 21.6382 130.443 21.6226C130.228 21.6388 130.013 21.5836 129.832 21.4655C129.651 21.3474 129.513 21.173 129.441 20.9691L125.843 11.5064Z" fill="white"/>
<path d="M97.4807 5.68591C101.079 5.68591 102.709 7.54187 102.709 10.2779C102.709 13.0138 101.053 14.8959 97.4807 14.8959H93.002V20.5596C93.002 21.2566 92.6361 21.6052 91.878 21.6052C91.12 21.6052 90.7801 21.2566 90.7801 20.5596V8.0298C90.7801 6.28714 91.4162 5.68591 93.3506 5.68591H97.4807ZM93.6033 7.55927C93.5183 7.54657 93.4316 7.55366 93.3498 7.57999C93.2681 7.60631 93.1935 7.65118 93.132 7.71106C93.0704 7.77093 93.0235 7.84421 92.9949 7.92519C92.9663 8.00618 92.9569 8.09268 92.9672 8.17794V13.0225H97.4633C99.6329 13.0225 100.408 11.7068 100.408 10.2779C100.408 8.84887 99.7984 7.55927 97.5068 7.55927H93.6033Z" fill="white"/>
<path d="M107.719 18.8866C107.719 19.3135 107.919 19.5139 108.329 19.5139H115.57C116.284 19.5139 116.624 19.8625 116.624 20.4985C116.624 21.1346 116.284 21.457 115.57 21.457H107.963C106.046 21.457 105.41 20.8296 105.41 19.1131V6.6182C105.41 5.92985 105.793 5.55518 106.551 5.55518C107.309 5.55518 107.719 5.92985 107.719 6.6182V18.8866Z" fill="white"/>
<path d="M145.883 9.17992C145.959 9.3593 146.001 9.55148 146.005 9.74628C145.966 10.0064 145.839 10.2455 145.647 10.4248C145.455 10.6042 145.207 10.7133 144.945 10.7345C144.683 10.7557 144.421 10.6877 144.202 10.5415C143.984 10.3954 143.821 10.1796 143.74 9.92925C143.493 9.14533 142.99 8.46656 142.313 8.00082C141.636 7.53508 140.822 7.30911 140.002 7.35883C137.135 7.35883 135.384 9.66786 135.384 13.5279C135.384 17.3879 137.196 19.8015 139.976 19.8015C141.919 19.8015 143.208 18.782 143.905 16.7169C143.945 16.4715 144.072 16.2485 144.262 16.0886C144.452 15.9287 144.694 15.8424 144.942 15.8456C145.639 15.8456 146.188 16.2551 146.188 16.8215C146.19 17.0088 146.158 17.195 146.092 17.3704C145.734 18.6884 144.931 19.8419 143.819 20.6358C142.708 21.4297 141.356 21.8152 139.993 21.7271C135.358 21.7271 133.127 18.1459 133.127 13.5279C133.127 9.2409 135.175 5.4332 140.019 5.4332C141.267 5.35939 142.506 5.68202 143.559 6.35497C144.612 7.02792 145.426 8.01671 145.883 9.17992Z" fill="white"/>
<path d="M148.811 8.0298C148.811 6.28714 149.447 5.68591 151.373 5.68591H158.892C159.563 5.68591 159.912 6.00832 159.912 6.60083C159.932 6.73792 159.919 6.87785 159.875 7.00905C159.83 7.14025 159.755 7.25891 159.655 7.35519C159.555 7.45146 159.434 7.52258 159.302 7.56262C159.169 7.60267 159.029 7.61047 158.892 7.58541H151.695C151.612 7.57382 151.528 7.58162 151.449 7.60817C151.369 7.63473 151.297 7.67932 151.238 7.73844C151.179 7.79757 151.134 7.8696 151.108 7.94888C151.081 8.02817 151.073 8.11255 151.085 8.19536V12.1774H156.967C157.681 12.1774 158.03 12.5085 158.03 13.1184C158.03 13.7283 157.681 14.0594 156.967 14.0594H151.111V18.904C151.111 19.331 151.312 19.5401 151.721 19.5401H159.206C159.92 19.5401 160.269 19.8887 160.269 20.516C160.269 21.1434 159.92 21.457 159.206 21.457H151.364C149.438 21.457 148.802 20.8297 148.802 19.1132L148.811 8.0298Z" fill="white"/>
<path d="M179.682 5.60749C183.281 5.60749 184.91 7.47214 184.91 10.2081C184.91 12.9441 183.255 14.8262 179.682 14.8262H175.212V20.4899C175.212 21.1869 174.846 21.5267 174.088 21.5267C173.33 21.5267 172.982 21.1869 172.982 20.4899V7.92524C172.982 6.18258 173.618 5.57263 175.596 5.57263L179.682 5.60749ZM175.805 7.48958C175.369 7.48958 175.169 7.69871 175.169 8.09952V12.9441H179.665C181.826 12.9441 182.61 11.6371 182.61 10.2081C182.61 8.77914 181.991 7.48958 179.708 7.48958H175.805Z" fill="white"/>
<path d="M208.236 21.6575C203.304 21.6575 201.265 17.7103 201.265 13.4582C201.265 9.20611 203.348 5.36353 208.236 5.36353C213.124 5.36353 215.146 9.12769 215.146 13.4582C215.146 17.7887 213.263 21.6575 208.236 21.6575ZM208.236 19.7318C211.216 19.7318 212.889 17.3792 212.889 13.4582C212.889 9.53722 211.233 7.28916 208.253 7.28916C205.273 7.28916 203.557 9.55465 203.557 13.4582C203.557 17.3618 205.291 19.7318 208.236 19.7318Z" fill="white"/>
<path d="M223.868 20.4899C223.868 21.187 223.475 21.5268 222.683 21.5268C221.89 21.5268 221.559 21.187 221.559 20.4899V7.55063H217.333C216.644 7.55063 216.296 7.22824 216.296 6.57474C216.296 5.92124 216.644 5.60754 217.333 5.60754H228.172C228.86 5.60754 229.209 5.95609 229.209 6.57474C229.209 7.19338 228.86 7.55063 228.172 7.55063H223.876L223.868 20.4899Z" fill="white"/>
<path d="M237.277 21.6575C232.346 21.6575 230.307 17.7103 230.307 13.4582C230.307 9.20611 232.389 5.36353 237.277 5.36353C242.166 5.36353 244.187 9.12769 244.187 13.4582C244.187 17.7887 242.305 21.6575 237.277 21.6575ZM237.277 19.7318C240.257 19.7318 241.93 17.3792 241.93 13.4582C241.93 9.53722 240.275 7.28916 237.295 7.28916C234.315 7.28916 232.59 9.55465 232.59 13.4582C232.59 17.3618 234.332 19.7318 237.277 19.7318Z" fill="white"/>
<path d="M259.226 9.10154C259.298 9.28522 259.339 9.47952 259.348 9.67662C259.313 9.94065 259.188 10.1845 258.994 10.3677C258.801 10.551 258.55 10.6625 258.285 10.6839C258.019 10.7053 257.754 10.6352 257.534 10.4852C257.314 10.3353 257.152 10.1145 257.074 9.85959C256.838 9.06589 256.339 8.37557 255.661 7.90095C254.982 7.42634 254.163 7.19537 253.336 7.24559C250.478 7.24559 248.718 9.55461 248.718 13.4146C248.718 17.2746 250.539 19.6882 253.319 19.6882C255.253 19.6882 256.543 18.6688 257.24 16.6037C257.283 16.3583 257.412 16.1362 257.603 15.9767C257.794 15.8172 258.036 15.7306 258.285 15.7324C258.432 15.7142 258.581 15.7253 258.723 15.7651C258.865 15.8049 258.998 15.8725 259.114 15.9641C259.23 16.0557 259.327 16.1695 259.398 16.2987C259.47 16.4279 259.515 16.5701 259.531 16.717C259.529 16.9047 259.494 17.0906 259.427 17.2659C259.068 18.5839 258.265 19.7374 257.153 20.5313C256.042 21.3252 254.69 21.7107 253.327 21.6226C248.683 21.6226 246.461 18.0414 246.461 13.4233C246.461 9.12767 248.5 5.32865 253.345 5.32865C254.598 5.2557 255.842 5.58149 256.899 6.25928C257.955 6.93707 258.77 7.93206 259.226 9.10154Z" fill="white"/>
<path d="M268.375 21.6575C263.452 21.6575 261.405 17.7103 261.405 13.4582C261.405 9.20611 263.487 5.36353 268.375 5.36353C273.263 5.36353 275.276 9.12769 275.276 13.4582C275.276 17.7887 273.403 21.6575 268.375 21.6575ZM268.375 19.7318C271.364 19.7318 273.037 17.3792 273.037 13.4582C273.037 9.53722 271.381 7.28916 268.401 7.28916C265.421 7.28916 263.696 9.55465 263.696 13.4582C263.696 17.3618 265.43 19.7318 268.375 19.7318Z" fill="white"/>
<path d="M280.574 18.8169C280.561 18.9015 280.568 18.988 280.594 19.0694C280.62 19.1509 280.665 19.2251 280.726 19.286C280.786 19.347 280.859 19.393 280.94 19.4205C281.021 19.448 281.108 19.4561 281.193 19.4442H288.425C289.139 19.4442 289.488 19.7928 289.488 20.4288C289.488 21.0649 289.139 21.3873 288.425 21.3873H280.818C278.901 21.3873 278.265 20.7512 278.265 19.0347V6.5485C278.265 5.85143 278.657 5.48547 279.415 5.48547C280.173 5.48547 280.574 5.85143 280.574 6.5485V18.8169Z" fill="white"/>
<path d="M199.714 19.9584L196.177 14.1118C197.058 13.863 197.828 13.3205 198.359 12.574C198.89 11.8276 199.15 10.9222 199.096 10.0078C199.096 7.08011 197.353 5.60754 193.929 5.60754H190.191C188.247 5.60754 187.577 6.2262 187.577 7.96015V20.4899C187.577 21.187 187.908 21.5268 188.657 21.5268C189.406 21.5268 189.764 21.187 189.764 20.4899V8.09957C189.764 7.69876 189.99 7.48963 190.417 7.48963H193.902C195.825 7.48963 196.787 8.32902 196.787 10.0078C196.787 11.7505 195.802 12.6218 193.868 12.6218H193.815C193.65 12.6218 193.066 12.6828 193.38 13.4234L193.963 14.4864L197.684 21.0214C197.77 21.1782 197.896 21.3097 198.049 21.4029C198.202 21.4962 198.376 21.5479 198.555 21.553C198.704 21.5661 198.854 21.5496 198.997 21.5045C199.139 21.4594 199.271 21.3866 199.385 21.2902C199.5 21.1939 199.594 21.0758 199.662 20.943C199.73 20.8101 199.772 20.665 199.784 20.5161C199.812 20.3273 199.788 20.1346 199.714 19.9584Z" fill="white"/>
</g>
<defs>
<radialGradient id="paint0_radial_1545_2578" cx="0" cy="0" r="1" gradientUnits="userSpaceOnUse" gradientTransform="translate(52.0383 22.5) rotate(-147.982) scale(31.4357 27.4618)">
<stop stop-color="#FF8979"/>
<stop offset="0.444092" stop-color="#862ECB"/>
<stop offset="0.736917" stop-color="#5234CB"/>
<stop offset="1" stop-color="#4B57CB"/>
</radialGradient>
<linearGradient id="paint1_linear_1545_2578" x1="8.24803" y1="9.95588" x2="25.3591" y2="14.6757" gradientUnits="userSpaceOnUse">
<stop offset="0.465827" stop-color="white"/>
<stop offset="1" stop-color="white" stop-opacity="0.5"/>
</linearGradient>
<clipPath id="clip0_1545_2578">
<rect width="50" height="25" fill="white"/>
</clipPath>
<clipPath id="clip1_1545_2578">
<rect width="227.488" height="16.3636" fill="white" transform="translate(62 5.36353)"/>
</clipPath>
</defs>
</svg>
