<svg width="29" height="17" viewBox="0 0 29 17" fill="none" xmlns="http://www.w3.org/2000/svg">
<path d="M16 8.88612C16 13.3043 12.4182 16.886 8.00014 16.886C3.58204 16.886 0 13.3035 0 8.88612C0 4.46872 3.58177 0.885986 8.00014 0.885986C12.4185 0.885986 16 4.46791 16 8.88612Z" fill="#EE7D85"/>
<path d="M25 8.88599C25 13.3035 23.2091 16.886 21 16.886C18.7909 16.886 17 13.3035 17 8.88599C17 4.4685 18.7906 0.885986 20.9997 0.885986C23.2089 0.885986 24.9997 4.46735 24.9997 8.88599" fill="#EE7D85"/>
<path d="M28.4445 8.9971C28.4445 12.9234 27.8476 16.1082 27.111 16.1082C26.3745 16.1082 25.7778 12.9242 25.7778 8.9971C25.7778 5.06997 26.3747 1.88599 27.111 1.88599C27.8473 1.88599 28.4445 5.06968 28.4445 8.9971Z" fill="#EE7D85"/>
</svg>
