<svg width="25" height="24" viewBox="0 0 25 24" fill="none" xmlns="http://www.w3.org/2000/svg">
<path d="M15.5 8C15.5 8.26522 15.3946 8.51957 15.2071 8.70711C15.0196 8.89464 14.7652 9 14.5 9H6.5C6.23478 9 5.98043 8.89464 5.79289 8.70711C5.60536 8.51957 5.5 8.26522 5.5 8C5.5 7.73478 5.60536 7.48043 5.79289 7.29289C5.98043 7.10536 6.23478 7 6.5 7H14.5C14.7652 7 15.0196 7.10536 15.2071 7.29289C15.3946 7.48043 15.5 7.73478 15.5 8ZM14.5 11H6.5C6.23478 11 5.98043 11.1054 5.79289 11.2929C5.60536 11.4804 5.5 11.7348 5.5 12C5.5 12.2652 5.60536 12.5196 5.79289 12.7071C5.98043 12.8946 6.23478 13 6.5 13H14.5C14.7652 13 15.0196 12.8946 15.2071 12.7071C15.3946 12.5196 15.5 12.2652 15.5 12C15.5 11.7348 15.3946 11.4804 15.2071 11.2929C15.0196 11.1054 14.7652 11 14.5 11ZM10.5 15H6.5C6.23478 15 5.98043 15.1054 5.79289 15.2929C5.60536 15.4804 5.5 15.7348 5.5 16C5.5 16.2652 5.60536 16.5196 5.79289 16.7071C5.98043 16.8946 6.23478 17 6.5 17H10.5C10.7652 17 11.0196 16.8946 11.2071 16.7071C11.3946 16.5196 11.5 16.2652 11.5 16C11.5 15.7348 11.3946 15.4804 11.2071 15.2929C11.0196 15.1054 10.7652 15 10.5 15ZM23.5 12V20C23.5 20.7956 23.1839 21.5587 22.6213 22.1213C22.0587 22.6839 21.2956 23 20.5 23H4.5C3.70435 23 2.94129 22.6839 2.37868 22.1213C1.81607 21.5587 1.5 20.7956 1.5 20V4C1.5 3.20435 1.81607 2.44129 2.37868 1.87868C2.94129 1.31607 3.70435 1 4.5 1H16.5C17.2956 1 18.0587 1.31607 18.6213 1.87868C19.1839 2.44129 19.5 3.20435 19.5 4V11H22.5C22.7652 11 23.0196 11.1054 23.2071 11.2929C23.3946 11.4804 23.5 11.7348 23.5 12ZM17.5 4C17.5 3.73478 17.3946 3.48043 17.2071 3.29289C17.0196 3.10536 16.7652 3 16.5 3H4.5C4.23478 3 3.98043 3.10536 3.79289 3.29289C3.60536 3.48043 3.5 3.73478 3.5 4V20C3.5 20.2652 3.60536 20.5196 3.79289 20.7071C3.98043 20.8946 4.23478 21 4.5 21H17.5V4ZM21.5 13H19.5V21H20.5C20.7652 21 21.0196 20.8946 21.2071 20.7071C21.3946 20.5196 21.5 20.2652 21.5 20V13Z" fill="white"/>
</svg>
