<svg width="20" height="19" viewBox="0 0 20 19" fill="none" xmlns="http://www.w3.org/2000/svg">
<g clip-path="url(#clip0_1545_2621)">
<path d="M9.53124 0.791687C7.8089 0.791687 6.12523 1.30242 4.69315 2.25931C3.26108 3.21619 2.14491 4.57625 1.48579 6.16749C0.82668 7.75873 0.654226 9.50968 0.990239 11.1989C1.32625 12.8882 2.15564 14.4399 3.37352 15.6577C4.5914 16.8756 6.14308 17.705 7.83233 18.041C9.52158 18.377 11.2725 18.2046 12.8638 17.5455C14.455 16.8864 15.8151 15.7702 16.772 14.3381C17.7288 12.906 18.2396 11.2224 18.2396 9.50002C18.2369 7.19126 17.3185 4.97785 15.686 3.34531C14.0534 1.71277 11.84 0.794411 9.53124 0.791687ZM9.53124 2.37502C11.2829 2.37739 12.9724 3.02423 14.2778 4.19223C15.5832 5.36024 16.4132 6.96774 16.6095 8.70835H12.6979C12.5396 8.7083 12.3849 8.75571 12.2538 8.84448C12.1227 8.93325 12.0212 9.05928 11.9625 9.20631L11.1146 11.3264L8.68337 5.24798C8.62461 5.10106 8.52318 4.97512 8.39216 4.88641C8.26114 4.7977 8.10654 4.75028 7.94831 4.75028C7.79008 4.75028 7.63548 4.7977 7.50445 4.88641C7.37343 4.97512 7.272 5.10106 7.21324 5.24798L5.82862 8.70835H2.45295C2.64931 6.96774 3.47928 5.36024 4.78467 4.19223C6.09006 3.02423 7.77959 2.37739 9.53124 2.37502ZM9.53124 16.625C7.77959 16.6226 6.09006 15.9758 4.78467 14.8078C3.47928 13.6398 2.64931 12.0323 2.45295 10.2917H6.36458C6.52277 10.2916 6.67731 10.2441 6.80825 10.1553C6.9392 10.0666 7.04055 9.94063 7.09924 9.79373L7.94791 7.67285L10.3791 13.7521C10.4377 13.8992 10.5392 14.0254 10.6703 14.1143C10.8014 14.2032 10.9562 14.2507 11.1146 14.2507C11.273 14.2507 11.4278 14.2032 11.5589 14.1143C11.69 14.0254 11.7914 13.8992 11.85 13.7521L13.2339 10.2917H16.6095C16.4132 12.0323 15.5832 13.6398 14.2778 14.8078C12.9724 15.9758 11.2829 16.6226 9.53124 16.625Z" fill="#EE7D85"/>
</g>
<defs>
<clipPath id="clip0_1545_2621">
<rect width="19" height="19" fill="white" transform="translate(0.03125)"/>
</clipPath>
</defs>
</svg>
