<svg width="25" height="24" viewBox="0 0 25 24" fill="none" xmlns="http://www.w3.org/2000/svg">
<path d="M3.5 23C3.23478 23 2.98043 22.8946 2.79289 22.7071C2.60536 22.5196 2.5 22.2652 2.5 22V2C2.5 1.73478 2.60536 1.48043 2.79289 1.29289C2.98043 1.10536 3.23478 1 3.5 1C3.76522 1 4.01957 1.10536 4.20711 1.29289C4.39464 1.48043 4.5 1.73478 4.5 2V3H8.5C8.76522 3 9.01957 3.10536 9.20711 3.29289C9.39464 3.48043 9.5 3.73478 9.5 4C9.5 4.26522 9.39464 4.51957 9.20711 4.70711C9.01957 4.89464 8.76522 5 8.5 5H4.5V11H12.5C12.7652 11 13.0196 11.1054 13.2071 11.2929C13.3946 11.4804 13.5 11.7348 13.5 12C13.5 12.2652 13.3946 12.5196 13.2071 12.7071C13.0196 12.8946 12.7652 13 12.5 13H4.5V19H6.5C6.76522 19 7.01957 19.1054 7.20711 19.2929C7.39464 19.4804 7.5 19.7348 7.5 20C7.5 20.2652 7.39464 20.5196 7.20711 20.7071C7.01957 20.8946 6.76522 21 6.5 21H4.5V22C4.5 22.2652 4.39464 22.5196 4.20711 22.7071C4.01957 22.8946 3.76522 23 3.5 23ZM21.5 3H13.5V2C13.5 1.73478 13.3946 1.48043 13.2071 1.29289C13.0196 1.10536 12.7652 1 12.5 1C12.2348 1 11.9804 1.10536 11.7929 1.29289C11.6054 1.48043 11.5 1.73478 11.5 2V4V6C11.5 6.26522 11.6054 6.51957 11.7929 6.70711C11.9804 6.89464 12.2348 7 12.5 7C12.7652 7 13.0196 6.89464 13.2071 6.70711C13.3946 6.51957 13.5 6.26522 13.5 6V5H21.5C21.7652 5 22.0196 4.89464 22.2071 4.70711C22.3946 4.51957 22.5 4.26522 22.5 4C22.5 3.73478 22.3946 3.48043 22.2071 3.29289C22.0196 3.10536 21.7652 3 21.5 3ZM21.5 11H17.5V10C17.5 9.73478 17.3946 9.48043 17.2071 9.29289C17.0196 9.10536 16.7652 9 16.5 9C16.2348 9 15.9804 9.10536 15.7929 9.29289C15.6054 9.48043 15.5 9.73478 15.5 10V12V14C15.5 14.2652 15.6054 14.5196 15.7929 14.7071C15.9804 14.8946 16.2348 15 16.5 15C16.7652 15 17.0196 14.8946 17.2071 14.7071C17.3946 14.5196 17.5 14.2652 17.5 14V13H21.5C21.7652 13 22.0196 12.8946 22.2071 12.7071C22.3946 12.5196 22.5 12.2652 22.5 12C22.5 11.7348 22.3946 11.4804 22.2071 11.2929C22.0196 11.1054 21.7652 11 21.5 11ZM21.5 19H11.5V18C11.5 17.7348 11.3946 17.4804 11.2071 17.2929C11.0196 17.1054 10.7652 17 10.5 17C10.2348 17 9.98043 17.1054 9.79289 17.2929C9.60536 17.4804 9.5 17.7348 9.5 18V20V22C9.5 22.2652 9.60536 22.5196 9.79289 22.7071C9.98043 22.8946 10.2348 23 10.5 23C10.7652 23 11.0196 22.8946 11.2071 22.7071C11.3946 22.5196 11.5 22.2652 11.5 22V21H21.5C21.7652 21 22.0196 20.8946 22.2071 20.7071C22.3946 20.5196 22.5 20.2652 22.5 20C22.5 19.7348 22.3946 19.4804 22.2071 19.2929C22.0196 19.1054 21.7652 19 21.5 19Z" fill="white"/>
</svg>
