<svg width="25" height="24" viewBox="0 0 25 24" fill="none" xmlns="http://www.w3.org/2000/svg">
<path d="M9 23C10.2024 23.008 11.3943 22.7761 12.506 22.318C13.4549 22.7706 14.4936 23.0037 15.545 22.9999C16.5963 22.9961 17.6333 22.7556 18.5789 22.2961C19.5245 21.8366 20.3545 21.1701 21.0073 20.3459C21.66 19.5217 22.1187 18.5611 22.3493 17.5353C22.5799 16.5096 22.5764 15.445 22.3393 14.4208C22.1021 13.3966 21.6372 12.4389 20.9792 11.6189C20.3212 10.7989 19.487 10.1377 18.5384 9.68432C17.5899 9.23093 16.5513 8.99704 15.5 9V5.333C15.5 2.9 12.645 1 9 1C5.355 1 2.5 2.9 2.5 5.333V18.667C2.5 21.1 5.355 23 9 23ZM15.5 11C16.4889 11 17.4556 11.2932 18.2779 11.8427C19.1001 12.3921 19.741 13.173 20.1194 14.0866C20.4978 15.0002 20.5969 16.0055 20.4039 16.9755C20.211 17.9454 19.7348 18.8363 19.0355 19.5355C18.3363 20.2348 17.4454 20.711 16.4755 20.9039C15.5055 21.0969 14.5002 20.9978 13.5866 20.6194C12.673 20.241 11.8921 19.6001 11.3427 18.7779C10.7932 17.9556 10.5 16.9889 10.5 16C10.5016 14.6744 11.0289 13.4036 11.9662 12.4662C12.9036 11.5289 14.1744 11.0016 15.5 11ZM9 3C11.652 3 13.5 4.23 13.5 5.333C13.5 6.436 11.652 7.667 9 7.667C6.348 7.667 4.5 6.437 4.5 5.333C4.5 4.229 6.348 3 9 3ZM4.5 8.482C5.85986 9.28958 7.41876 9.70009 9 9.667C10.5812 9.70009 12.1401 9.28958 13.5 8.482V9.3C11.9612 9.7606 10.6267 10.7347 9.719 12.06C9.48 12.081 9.243 12.111 9 12.111C6.348 12.111 4.5 10.881 4.5 9.778V8.482ZM4.5 12.927C5.79189 13.6933 7.26594 14.0984 8.768 14.1C8.59164 14.718 8.50145 15.3574 8.5 16C8.5 16.178 8.514 16.353 8.527 16.528C6.136 16.39 4.5 15.257 4.5 14.222V12.927ZM4.5 17.371C5.85698 18.1766 7.41221 18.5867 8.99 18.555C9.32724 19.4113 9.8298 20.1929 10.469 20.855C9.98499 20.9495 9.49314 20.998 9 21C6.348 21 4.5 19.77 4.5 18.667V17.371Z" fill="white"/>
</svg>
