<svg width="25" height="24" viewBox="0 0 25 24" fill="none" xmlns="http://www.w3.org/2000/svg">
<path d="M4.5 23C4.23478 23 3.98043 22.8946 3.79289 22.7071C3.60536 22.5196 3.5 22.2652 3.5 22V19C3.5 18.7348 3.60536 18.4804 3.79289 18.2929C3.98043 18.1054 4.23478 18 4.5 18C4.76522 18 5.01957 18.1054 5.20711 18.2929C5.39464 18.4804 5.5 18.7348 5.5 19V22C5.5 22.2652 5.39464 22.5196 5.20711 22.7071C5.01957 22.8946 4.76522 23 4.5 23ZM13.5 22V15C13.5 14.7348 13.3946 14.4804 13.2071 14.2929C13.0196 14.1054 12.7652 14 12.5 14C12.2348 14 11.9804 14.1054 11.7929 14.2929C11.6054 14.4804 11.5 14.7348 11.5 15V22C11.5 22.2652 11.6054 22.5196 11.7929 22.7071C11.9804 22.8946 12.2348 23 12.5 23C12.7652 23 13.0196 22.8946 13.2071 22.7071C13.3946 22.5196 13.5 22.2652 13.5 22ZM20.5 11C20.2348 11 19.9804 11.1054 19.7929 11.2929C19.6054 11.4804 19.5 11.7348 19.5 12V22C19.5 22.2652 19.6054 22.5196 19.7929 22.7071C19.9804 22.8946 20.2348 23 20.5 23C20.7652 23 21.0196 22.8946 21.2071 22.7071C21.3946 22.5196 21.5 22.2652 21.5 22V12C21.5 11.7348 21.3946 11.4804 21.2071 11.2929C21.0196 11.1054 20.7652 11 20.5 11ZM20.882 1.077C20.761 1.0263 20.6312 1.00013 20.5 1H16.5C16.2348 1 15.9804 1.10536 15.7929 1.29289C15.6054 1.48043 15.5 1.73478 15.5 2C15.5 2.26522 15.6054 2.51957 15.7929 2.70711C15.9804 2.89464 16.2348 3 16.5 3H18.086L12.5 8.586L9.207 5.293C9.01947 5.10553 8.76516 5.00021 8.5 5.00021C8.23484 5.00021 7.98053 5.10553 7.793 5.293L3.793 9.293C3.61084 9.4816 3.51005 9.7342 3.51233 9.9964C3.5146 10.2586 3.61977 10.5094 3.80518 10.6948C3.99059 10.8802 4.2414 10.9854 4.5036 10.9877C4.7658 10.99 5.0184 10.8892 5.207 10.707L8.5 7.414L11.793 10.707C11.9805 10.8945 12.2348 10.9998 12.5 10.9998C12.7652 10.9998 13.0195 10.8945 13.207 10.707L19.5 4.414V6C19.5 6.26522 19.6054 6.51957 19.7929 6.70711C19.9804 6.89464 20.2348 7 20.5 7C20.7652 7 21.0196 6.89464 21.2071 6.70711C21.3946 6.51957 21.5 6.26522 21.5 6V2C21.4998 1.80229 21.4409 1.60909 21.3309 1.4448C21.2209 1.28052 21.0647 1.15252 20.882 1.077Z" fill="white"/>
</svg>
