<svg width="24" height="25" viewBox="0 0 24 25" fill="none" xmlns="http://www.w3.org/2000/svg">
<path d="M7.54752 22.6367C16.6042 22.6367 21.5578 15.1334 21.5578 8.62651C21.5578 8.41339 21.5578 8.20123 21.5434 7.99003C22.507 7.29298 23.3389 6.42991 24 5.44123C23.1014 5.83963 22.148 6.10078 21.1718 6.21595C22.1998 5.60064 22.9692 4.63273 23.3366 3.49243C22.3701 4.06603 21.3126 4.47025 20.2099 4.68763C19.4675 3.8982 18.4856 3.37547 17.4162 3.20031C16.3468 3.02515 15.2494 3.20734 14.294 3.71868C13.3385 4.23002 12.5782 5.042 12.1307 6.02897C11.6833 7.01595 11.5735 8.12289 11.8186 9.17851C9.86089 9.0803 7.94576 8.57154 6.19745 7.68523C4.44915 6.79892 2.90676 5.55489 1.6704 4.03387C1.04073 5.11786 0.847872 6.40109 1.1311 7.62229C1.41433 8.84348 2.15234 9.91082 3.19488 10.607C2.41123 10.584 1.64465 10.3726 0.96 9.99067V10.0531C0.960311 11.1899 1.35385 12.2917 2.07387 13.1714C2.79389 14.0512 3.79606 14.6548 4.9104 14.8799C4.18548 15.0777 3.42487 15.1066 2.68704 14.9644C3.00181 15.9428 3.61443 16.7983 4.43924 17.4114C5.26405 18.0245 6.25983 18.3645 7.28736 18.3839C6.26644 19.1864 5.09731 19.7797 3.84687 20.1299C2.59643 20.4802 1.28921 20.5804 0 20.4249C2.25183 21.8699 4.87192 22.6364 7.54752 22.6329" fill="#EE7D85"/>
</svg>
