<svg width="25" height="18" viewBox="0 0 25 18" fill="none" xmlns="http://www.w3.org/2000/svg">
<path fill-rule="evenodd" clip-rule="evenodd" d="M22.7465 1.72017C23.1189 2.09494 23.3863 2.56093 23.522 3.07152C24.0238 4.95606 24.0238 8.88606 24.0238 8.88606C24.0238 8.88606 24.0238 12.8161 23.522 14.7006C23.3863 15.2112 23.1189 15.6772 22.7465 16.052C22.3741 16.4267 21.9099 16.6971 21.4002 16.8361C19.5238 17.3406 12.0238 17.3406 12.0238 17.3406C12.0238 17.3406 4.5238 17.3406 2.64744 16.8361C2.13773 16.6971 1.67346 16.4267 1.30109 16.052C0.92872 15.6772 0.66131 15.2112 0.525622 14.7006C0.0238037 12.8161 0.0238037 8.88606 0.0238037 8.88606C0.0238037 8.88606 0.0238037 4.95606 0.525622 3.07152C0.66131 2.56093 0.92872 2.09494 1.30109 1.72017C1.67346 1.34541 2.13773 1.07502 2.64744 0.936064C4.5238 0.431519 12.0238 0.431519 12.0238 0.431519C12.0238 0.431519 19.5238 0.431519 21.4002 0.936064C21.9099 1.07502 22.3741 1.34541 22.7465 1.72017ZM15.842 8.88606L9.56927 5.31743V12.4547L15.842 8.88606Z" fill="#EE7D85"/>
</svg>
